G04 (created by PCBNEW-RS274X (2011-05-25)-stable) date Tue 28 Feb 2012 11:44:01 PM PST*
G01*
G70*
G90*
%MOIN*%
G04 Gerber Fmt 3.4, Leading zero omitted, Abs format*
%FSLAX34Y34*%
G04 APERTURE LIST*
%ADD10C,0.006000*%
%ADD11C,0.015000*%
%ADD12C,0.005000*%
%ADD13C,0.012000*%
%ADD14C,0.010000*%
%ADD15C,0.010700*%
%ADD16C,0.003000*%
G04 APERTURE END LIST*
G54D10*
G54D11*
X07400Y-13500D02*
X07382Y-13674D01*
X07332Y-13842D01*
X07249Y-13998D01*
X07138Y-14134D01*
X07003Y-14246D01*
X06848Y-14329D01*
X06680Y-14381D01*
X06506Y-14399D01*
X06332Y-14384D01*
X06163Y-14334D01*
X06008Y-14253D01*
X05871Y-14143D01*
X05758Y-14008D01*
X05673Y-13854D01*
X05620Y-13687D01*
X05601Y-13512D01*
X05615Y-13338D01*
X05664Y-13169D01*
X05744Y-13013D01*
X05853Y-12875D01*
X05987Y-12761D01*
X06140Y-12676D01*
X06307Y-12621D01*
X06482Y-12601D01*
X06656Y-12614D01*
X06825Y-12661D01*
X06982Y-12741D01*
X07120Y-12849D01*
X07235Y-12982D01*
X07322Y-13134D01*
X07377Y-13301D01*
X07399Y-13475D01*
X07400Y-13500D01*
X29400Y-13500D02*
X29382Y-13674D01*
X29332Y-13842D01*
X29249Y-13998D01*
X29138Y-14134D01*
X29003Y-14246D01*
X28848Y-14329D01*
X28680Y-14381D01*
X28506Y-14399D01*
X28332Y-14384D01*
X28163Y-14334D01*
X28008Y-14253D01*
X27871Y-14143D01*
X27758Y-14008D01*
X27673Y-13854D01*
X27620Y-13687D01*
X27601Y-13512D01*
X27615Y-13338D01*
X27664Y-13169D01*
X27744Y-13013D01*
X27853Y-12875D01*
X27987Y-12761D01*
X28140Y-12676D01*
X28307Y-12621D01*
X28482Y-12601D01*
X28656Y-12614D01*
X28825Y-12661D01*
X28982Y-12741D01*
X29120Y-12849D01*
X29235Y-12982D01*
X29322Y-13134D01*
X29377Y-13301D01*
X29399Y-13475D01*
X29400Y-13500D01*
X16000Y-12000D02*
X19000Y-12000D01*
X19000Y-12000D02*
X19000Y-14500D01*
X19000Y-14500D02*
X18500Y-15000D01*
X18500Y-15000D02*
X16000Y-15000D01*
X16000Y-15000D02*
X16000Y-12000D01*
G54D12*
X12700Y-13300D02*
X12900Y-13000D01*
X12700Y-14000D02*
X12700Y-12975D01*
X12700Y-12975D02*
X13300Y-12975D01*
X13300Y-12975D02*
X13300Y-14000D01*
X13300Y-14000D02*
X12700Y-14000D01*
X08500Y-15050D02*
X08500Y-15950D01*
X08500Y-15950D02*
X09150Y-15950D01*
X09850Y-15050D02*
X10500Y-15050D01*
X10500Y-15050D02*
X10500Y-15950D01*
X10500Y-15950D02*
X09850Y-15950D01*
X09150Y-15050D02*
X08500Y-15050D01*
X10500Y-13950D02*
X10500Y-13050D01*
X10500Y-13050D02*
X09850Y-13050D01*
X09150Y-13950D02*
X08500Y-13950D01*
X08500Y-13950D02*
X08500Y-13050D01*
X08500Y-13050D02*
X09150Y-13050D01*
X09850Y-13950D02*
X10500Y-13950D01*
X10500Y-11950D02*
X10500Y-11050D01*
X10500Y-11050D02*
X09850Y-11050D01*
X09150Y-11950D02*
X08500Y-11950D01*
X08500Y-11950D02*
X08500Y-11050D01*
X08500Y-11050D02*
X09150Y-11050D01*
X09850Y-11950D02*
X10500Y-11950D01*
G54D13*
X21500Y-15500D02*
X21500Y-15500D01*
X22500Y-15500D02*
X21500Y-15500D01*
X21500Y-15500D02*
X21500Y-15500D01*
X21500Y-15500D02*
X21500Y-11500D01*
X21500Y-11500D02*
X22500Y-11500D01*
X22500Y-11500D02*
X22500Y-15500D01*
X22500Y-14500D02*
X21500Y-14500D01*
X26000Y-14500D02*
X25000Y-14500D01*
X25000Y-14500D02*
X25000Y-12500D01*
X25000Y-12500D02*
X26000Y-12500D01*
X26000Y-12500D02*
X26000Y-14500D01*
X24500Y-14500D02*
X23500Y-14500D01*
X23500Y-14500D02*
X23500Y-12500D01*
X23500Y-12500D02*
X24500Y-12500D01*
X24500Y-12500D02*
X24500Y-14500D01*
G54D14*
X05643Y-12462D02*
X05643Y-12062D01*
X05643Y-12252D02*
X05872Y-12252D01*
X05872Y-12462D02*
X05872Y-12062D01*
X06138Y-12062D02*
X06215Y-12062D01*
X06253Y-12081D01*
X06291Y-12119D01*
X06310Y-12195D01*
X06310Y-12329D01*
X06291Y-12405D01*
X06253Y-12443D01*
X06215Y-12462D01*
X06138Y-12462D01*
X06100Y-12443D01*
X06062Y-12405D01*
X06043Y-12329D01*
X06043Y-12195D01*
X06062Y-12119D01*
X06100Y-12081D01*
X06138Y-12062D01*
X06672Y-12462D02*
X06481Y-12462D01*
X06481Y-12062D01*
X06805Y-12252D02*
X06939Y-12252D01*
X06996Y-12462D02*
X06805Y-12462D01*
X06805Y-12062D01*
X06996Y-12062D01*
X07377Y-12462D02*
X07148Y-12462D01*
X07262Y-12462D02*
X07262Y-12062D01*
X07224Y-12119D01*
X07186Y-12157D01*
X07148Y-12176D01*
X27643Y-12462D02*
X27643Y-12062D01*
X27643Y-12252D02*
X27872Y-12252D01*
X27872Y-12462D02*
X27872Y-12062D01*
X28138Y-12062D02*
X28215Y-12062D01*
X28253Y-12081D01*
X28291Y-12119D01*
X28310Y-12195D01*
X28310Y-12329D01*
X28291Y-12405D01*
X28253Y-12443D01*
X28215Y-12462D01*
X28138Y-12462D01*
X28100Y-12443D01*
X28062Y-12405D01*
X28043Y-12329D01*
X28043Y-12195D01*
X28062Y-12119D01*
X28100Y-12081D01*
X28138Y-12062D01*
X28672Y-12462D02*
X28481Y-12462D01*
X28481Y-12062D01*
X28805Y-12252D02*
X28939Y-12252D01*
X28996Y-12462D02*
X28805Y-12462D01*
X28805Y-12062D01*
X28996Y-12062D01*
X29148Y-12100D02*
X29167Y-12081D01*
X29205Y-12062D01*
X29301Y-12062D01*
X29339Y-12081D01*
X29358Y-12100D01*
X29377Y-12138D01*
X29377Y-12176D01*
X29358Y-12233D01*
X29129Y-12462D01*
X29377Y-12462D01*
G54D15*
X17184Y-13776D02*
X17184Y-13093D01*
X17286Y-13093D01*
X17347Y-13125D01*
X17388Y-13191D01*
X17408Y-13256D01*
X17428Y-13386D01*
X17428Y-13483D01*
X17408Y-13613D01*
X17388Y-13678D01*
X17347Y-13743D01*
X17286Y-13776D01*
X17184Y-13776D01*
X17836Y-13776D02*
X17592Y-13776D01*
X17714Y-13776D02*
X17714Y-13093D01*
X17673Y-13191D01*
X17632Y-13256D01*
X17592Y-13288D01*
G54D16*
X13921Y-13779D02*
X14164Y-13779D01*
X14193Y-13764D01*
X14207Y-13750D01*
X14221Y-13721D01*
X14221Y-13664D01*
X14207Y-13636D01*
X14193Y-13621D01*
X14164Y-13607D01*
X13921Y-13607D01*
X14221Y-13307D02*
X14221Y-13479D01*
X14221Y-13393D02*
X13921Y-13393D01*
X13964Y-13422D01*
X13993Y-13450D01*
X14007Y-13479D01*
X13023Y-14050D02*
X13023Y-13957D01*
X13079Y-14069D02*
X12882Y-14004D01*
X13079Y-13938D01*
X12882Y-13900D02*
X12882Y-13788D01*
X13079Y-13844D02*
X12882Y-13844D01*
X12882Y-13750D02*
X12882Y-13638D01*
X13079Y-13694D02*
X12882Y-13694D01*
X13079Y-13572D02*
X12882Y-13572D01*
X13079Y-13478D02*
X12882Y-13478D01*
X13079Y-13366D01*
X12882Y-13366D01*
X12985Y-13235D02*
X13079Y-13235D01*
X12882Y-13300D02*
X12985Y-13235D01*
X12882Y-13169D01*
X12948Y-13019D02*
X13079Y-13019D01*
X12873Y-13066D02*
X13014Y-13112D01*
X13014Y-12991D01*
G54D12*
X09450Y-15621D02*
X09350Y-15479D01*
X09278Y-15621D02*
X09278Y-15321D01*
X09393Y-15321D01*
X09421Y-15336D01*
X09436Y-15350D01*
X09450Y-15379D01*
X09450Y-15421D01*
X09436Y-15450D01*
X09421Y-15464D01*
X09393Y-15479D01*
X09278Y-15479D01*
X09736Y-15621D02*
X09564Y-15621D01*
X09650Y-15621D02*
X09650Y-15321D01*
X09621Y-15364D01*
X09593Y-15393D01*
X09564Y-15407D01*
X09450Y-13621D02*
X09350Y-13479D01*
X09278Y-13621D02*
X09278Y-13321D01*
X09393Y-13321D01*
X09421Y-13336D01*
X09436Y-13350D01*
X09450Y-13379D01*
X09450Y-13421D01*
X09436Y-13450D01*
X09421Y-13464D01*
X09393Y-13479D01*
X09278Y-13479D01*
X09564Y-13350D02*
X09578Y-13336D01*
X09607Y-13321D01*
X09678Y-13321D01*
X09707Y-13336D01*
X09721Y-13350D01*
X09736Y-13379D01*
X09736Y-13407D01*
X09721Y-13450D01*
X09550Y-13621D01*
X09736Y-13621D01*
X09450Y-11621D02*
X09350Y-11479D01*
X09278Y-11621D02*
X09278Y-11321D01*
X09393Y-11321D01*
X09421Y-11336D01*
X09436Y-11350D01*
X09450Y-11379D01*
X09450Y-11421D01*
X09436Y-11450D01*
X09421Y-11464D01*
X09393Y-11479D01*
X09278Y-11479D01*
X09550Y-11321D02*
X09736Y-11321D01*
X09636Y-11436D01*
X09678Y-11436D01*
X09707Y-11450D01*
X09721Y-11464D01*
X09736Y-11493D01*
X09736Y-11564D01*
X09721Y-11593D01*
X09707Y-11607D01*
X09678Y-11621D01*
X09593Y-11621D01*
X09564Y-11607D01*
X09550Y-11593D01*
G54D15*
X21276Y-13948D02*
X20593Y-13948D01*
X20560Y-13438D02*
X21439Y-13805D01*
X20593Y-13215D02*
X20593Y-13133D01*
X20625Y-13092D01*
X20691Y-13052D01*
X20821Y-13031D01*
X21048Y-13031D01*
X21178Y-13052D01*
X21243Y-13092D01*
X21276Y-13133D01*
X21276Y-13215D01*
X21243Y-13255D01*
X21178Y-13296D01*
X21048Y-13316D01*
X20821Y-13316D01*
X20691Y-13296D01*
X20625Y-13255D01*
X20593Y-13215D01*
X24775Y-13816D02*
X24094Y-13816D01*
X24094Y-13653D01*
X24127Y-13612D01*
X24159Y-13592D01*
X24224Y-13572D01*
X24321Y-13572D01*
X24386Y-13592D01*
X24418Y-13612D01*
X24451Y-13653D01*
X24451Y-13816D01*
X24775Y-13164D02*
X24775Y-13408D01*
X24775Y-13286D02*
X24094Y-13286D01*
X24191Y-13327D01*
X24256Y-13368D01*
X24289Y-13408D01*
X23275Y-13816D02*
X22594Y-13816D01*
X22594Y-13653D01*
X22627Y-13612D01*
X22659Y-13592D01*
X22724Y-13572D01*
X22821Y-13572D01*
X22886Y-13592D01*
X22918Y-13612D01*
X22951Y-13653D01*
X22951Y-13816D01*
X22594Y-13429D02*
X22594Y-13164D01*
X22854Y-13307D01*
X22854Y-13245D01*
X22886Y-13205D01*
X22918Y-13184D01*
X22983Y-13164D01*
X23145Y-13164D01*
X23210Y-13184D01*
X23243Y-13205D01*
X23275Y-13245D01*
X23275Y-13368D01*
X23243Y-13408D01*
X23210Y-13429D01*
M02*
