G04 (created by PCBNEW-RS274X (2011-05-25)-stable) date Sun 01 Apr 2012 11:55:30 AM PDT*
G01*
G70*
G90*
%MOIN*%
G04 Gerber Fmt 3.4, Leading zero omitted, Abs format*
%FSLAX34Y34*%
G04 APERTURE LIST*
%ADD10C,0.006000*%
%ADD11C,0.160000*%
%ADD12R,0.055000X0.055000*%
%ADD13C,0.055000*%
%ADD14C,0.035000*%
%ADD15C,0.010000*%
G04 APERTURE END LIST*
G54D10*
G54D11*
X08000Y-13500D03*
X27250Y-13500D03*
G54D12*
X16500Y-12500D03*
G54D13*
X18500Y-14500D03*
X18500Y-12500D03*
X16500Y-14500D03*
G54D12*
X20500Y-15000D03*
G54D13*
X20500Y-14000D03*
X20500Y-13000D03*
X20500Y-12000D03*
G54D12*
X23000Y-12000D03*
G54D13*
X24000Y-12000D03*
X25000Y-12000D03*
G54D12*
X23000Y-15000D03*
G54D13*
X24000Y-15000D03*
X25000Y-15000D03*
G54D14*
X15691Y-13734D03*
X14175Y-13449D03*
G54D15*
X16425Y-13000D02*
X15691Y-13734D01*
X20500Y-13000D02*
X16425Y-13000D01*
G54D10*
G36*
X28175Y-15925D02*
X25525Y-15925D01*
X25525Y-15105D01*
X25525Y-14896D01*
X25519Y-14881D01*
X25519Y-12074D01*
X25508Y-11870D01*
X25452Y-11733D01*
X25361Y-11710D01*
X25290Y-11781D01*
X25290Y-11639D01*
X25267Y-11548D01*
X25074Y-11481D01*
X24870Y-11492D01*
X24733Y-11548D01*
X24710Y-11639D01*
X25000Y-11929D01*
X25290Y-11639D01*
X25290Y-11781D01*
X25071Y-12000D01*
X25361Y-12290D01*
X25452Y-12267D01*
X25519Y-12074D01*
X25519Y-14881D01*
X25445Y-14703D01*
X25298Y-14555D01*
X25290Y-14551D01*
X25290Y-12361D01*
X25000Y-12071D01*
X24929Y-12142D01*
X24929Y-12000D01*
X24639Y-11710D01*
X24548Y-11733D01*
X24503Y-11859D01*
X24452Y-11733D01*
X24361Y-11710D01*
X24290Y-11781D01*
X24290Y-11639D01*
X24267Y-11548D01*
X24074Y-11481D01*
X23870Y-11492D01*
X23733Y-11548D01*
X23710Y-11639D01*
X24000Y-11929D01*
X24290Y-11639D01*
X24290Y-11781D01*
X24071Y-12000D01*
X24361Y-12290D01*
X24452Y-12267D01*
X24496Y-12140D01*
X24548Y-12267D01*
X24639Y-12290D01*
X24929Y-12000D01*
X24929Y-12142D01*
X24710Y-12361D01*
X24733Y-12452D01*
X24926Y-12519D01*
X25130Y-12508D01*
X25267Y-12452D01*
X25290Y-12361D01*
X25290Y-14551D01*
X25105Y-14475D01*
X24896Y-14475D01*
X24703Y-14555D01*
X24555Y-14702D01*
X24499Y-14835D01*
X24445Y-14703D01*
X24298Y-14555D01*
X24290Y-14551D01*
X24290Y-12361D01*
X24000Y-12071D01*
X23929Y-12142D01*
X23929Y-12000D01*
X23639Y-11710D01*
X23548Y-11733D01*
X23524Y-11801D01*
X23524Y-11774D01*
X23524Y-11675D01*
X23486Y-11584D01*
X23416Y-11514D01*
X23324Y-11476D01*
X23112Y-11475D01*
X23050Y-11537D01*
X23050Y-11900D01*
X23050Y-11950D01*
X23050Y-12050D01*
X23050Y-12100D01*
X23050Y-12463D01*
X23112Y-12525D01*
X23324Y-12524D01*
X23416Y-12486D01*
X23486Y-12416D01*
X23524Y-12325D01*
X23524Y-12226D01*
X23524Y-12208D01*
X23548Y-12267D01*
X23639Y-12290D01*
X23929Y-12000D01*
X23929Y-12142D01*
X23710Y-12361D01*
X23733Y-12452D01*
X23926Y-12519D01*
X24130Y-12508D01*
X24267Y-12452D01*
X24290Y-12361D01*
X24290Y-14551D01*
X24105Y-14475D01*
X23896Y-14475D01*
X23703Y-14555D01*
X23555Y-14702D01*
X23524Y-14776D01*
X23524Y-14676D01*
X23486Y-14584D01*
X23416Y-14514D01*
X23325Y-14476D01*
X23226Y-14476D01*
X22950Y-14476D01*
X22950Y-12463D01*
X22950Y-12050D01*
X22950Y-11950D01*
X22950Y-11537D01*
X22888Y-11475D01*
X22676Y-11476D01*
X22584Y-11514D01*
X22514Y-11584D01*
X22476Y-11675D01*
X22476Y-11774D01*
X22475Y-11888D01*
X22537Y-11950D01*
X22950Y-11950D01*
X22950Y-12050D01*
X22537Y-12050D01*
X22475Y-12112D01*
X22476Y-12226D01*
X22476Y-12325D01*
X22514Y-12416D01*
X22584Y-12486D01*
X22676Y-12524D01*
X22888Y-12525D01*
X22950Y-12463D01*
X22950Y-14476D01*
X22676Y-14476D01*
X22584Y-14514D01*
X22514Y-14584D01*
X22476Y-14675D01*
X22476Y-14774D01*
X22476Y-15324D01*
X22514Y-15416D01*
X22584Y-15486D01*
X22675Y-15524D01*
X22774Y-15524D01*
X23324Y-15524D01*
X23416Y-15486D01*
X23486Y-15416D01*
X23524Y-15325D01*
X23524Y-15226D01*
X23524Y-15222D01*
X23555Y-15297D01*
X23702Y-15445D01*
X23895Y-15525D01*
X24104Y-15525D01*
X24297Y-15445D01*
X24445Y-15298D01*
X24500Y-15164D01*
X24555Y-15297D01*
X24702Y-15445D01*
X24895Y-15525D01*
X25104Y-15525D01*
X25297Y-15445D01*
X25445Y-15298D01*
X25525Y-15105D01*
X25525Y-15925D01*
X21025Y-15925D01*
X21025Y-14105D01*
X21025Y-13896D01*
X20945Y-13703D01*
X20798Y-13555D01*
X20664Y-13499D01*
X20797Y-13445D01*
X20945Y-13298D01*
X21025Y-13105D01*
X21025Y-12896D01*
X20945Y-12703D01*
X20798Y-12555D01*
X20664Y-12499D01*
X20797Y-12445D01*
X20945Y-12298D01*
X21025Y-12105D01*
X21025Y-11896D01*
X20945Y-11703D01*
X20798Y-11555D01*
X20605Y-11475D01*
X20396Y-11475D01*
X20203Y-11555D01*
X20055Y-11702D01*
X19975Y-11895D01*
X19975Y-12104D01*
X20055Y-12297D01*
X20202Y-12445D01*
X20335Y-12500D01*
X20203Y-12555D01*
X20057Y-12700D01*
X18985Y-12700D01*
X19025Y-12605D01*
X19025Y-12396D01*
X18945Y-12203D01*
X18798Y-12055D01*
X18605Y-11975D01*
X18396Y-11975D01*
X18203Y-12055D01*
X18055Y-12202D01*
X17975Y-12395D01*
X17975Y-12604D01*
X18014Y-12700D01*
X17024Y-12700D01*
X17024Y-12176D01*
X16986Y-12084D01*
X16916Y-12014D01*
X16825Y-11976D01*
X16726Y-11976D01*
X16176Y-11976D01*
X16084Y-12014D01*
X16014Y-12084D01*
X15976Y-12175D01*
X15976Y-12274D01*
X15976Y-12824D01*
X16014Y-12916D01*
X16049Y-12951D01*
X15692Y-13309D01*
X15607Y-13309D01*
X15451Y-13373D01*
X15331Y-13493D01*
X15266Y-13649D01*
X15266Y-13818D01*
X15330Y-13974D01*
X15450Y-14094D01*
X15606Y-14159D01*
X15775Y-14159D01*
X15931Y-14095D01*
X16051Y-13975D01*
X16116Y-13819D01*
X16116Y-13733D01*
X16549Y-13300D01*
X20057Y-13300D01*
X20202Y-13445D01*
X20335Y-13500D01*
X20203Y-13555D01*
X20055Y-13702D01*
X19975Y-13895D01*
X19975Y-14104D01*
X20055Y-14297D01*
X20202Y-14445D01*
X20276Y-14476D01*
X20176Y-14476D01*
X20084Y-14514D01*
X20014Y-14584D01*
X19976Y-14675D01*
X19976Y-14774D01*
X19976Y-15324D01*
X20014Y-15416D01*
X20084Y-15486D01*
X20175Y-15524D01*
X20274Y-15524D01*
X20824Y-15524D01*
X20916Y-15486D01*
X20986Y-15416D01*
X21024Y-15325D01*
X21024Y-15226D01*
X21024Y-14676D01*
X20986Y-14584D01*
X20916Y-14514D01*
X20825Y-14476D01*
X20726Y-14476D01*
X20722Y-14476D01*
X20797Y-14445D01*
X20945Y-14298D01*
X21025Y-14105D01*
X21025Y-15925D01*
X19019Y-15925D01*
X19019Y-14574D01*
X19008Y-14370D01*
X18952Y-14233D01*
X18861Y-14210D01*
X18790Y-14281D01*
X18790Y-14139D01*
X18767Y-14048D01*
X18574Y-13981D01*
X18370Y-13992D01*
X18233Y-14048D01*
X18210Y-14139D01*
X18500Y-14429D01*
X18790Y-14139D01*
X18790Y-14281D01*
X18571Y-14500D01*
X18861Y-14790D01*
X18952Y-14767D01*
X19019Y-14574D01*
X19019Y-15925D01*
X18790Y-15925D01*
X18790Y-14861D01*
X18500Y-14571D01*
X18429Y-14642D01*
X18429Y-14500D01*
X18139Y-14210D01*
X18048Y-14233D01*
X17981Y-14426D01*
X17992Y-14630D01*
X18048Y-14767D01*
X18139Y-14790D01*
X18429Y-14500D01*
X18429Y-14642D01*
X18210Y-14861D01*
X18233Y-14952D01*
X18426Y-15019D01*
X18630Y-15008D01*
X18767Y-14952D01*
X18790Y-14861D01*
X18790Y-15925D01*
X17025Y-15925D01*
X17025Y-14605D01*
X17025Y-14396D01*
X16945Y-14203D01*
X16798Y-14055D01*
X16605Y-13975D01*
X16396Y-13975D01*
X16203Y-14055D01*
X16055Y-14202D01*
X15975Y-14395D01*
X15975Y-14604D01*
X16055Y-14797D01*
X16202Y-14945D01*
X16395Y-15025D01*
X16604Y-15025D01*
X16797Y-14945D01*
X16945Y-14798D01*
X17025Y-14605D01*
X17025Y-15925D01*
X07075Y-15925D01*
X07075Y-14009D01*
X07110Y-14094D01*
X07405Y-14390D01*
X07790Y-14550D01*
X08208Y-14550D01*
X08594Y-14390D01*
X08890Y-14095D01*
X09050Y-13710D01*
X09050Y-13292D01*
X08890Y-12906D01*
X08595Y-12610D01*
X08210Y-12450D01*
X07792Y-12450D01*
X07406Y-12610D01*
X07110Y-12905D01*
X07075Y-12989D01*
X07075Y-11325D01*
X28175Y-11325D01*
X28175Y-12990D01*
X28140Y-12906D01*
X27845Y-12610D01*
X27460Y-12450D01*
X27042Y-12450D01*
X26656Y-12610D01*
X26360Y-12905D01*
X26200Y-13290D01*
X26200Y-13708D01*
X26360Y-14094D01*
X26655Y-14390D01*
X27040Y-14550D01*
X27458Y-14550D01*
X27844Y-14390D01*
X28140Y-14095D01*
X28175Y-14010D01*
X28175Y-15925D01*
X28175Y-15925D01*
G37*
G54D15*
X28175Y-15925D02*
X25525Y-15925D01*
X25525Y-15105D01*
X25525Y-14896D01*
X25519Y-14881D01*
X25519Y-12074D01*
X25508Y-11870D01*
X25452Y-11733D01*
X25361Y-11710D01*
X25290Y-11781D01*
X25290Y-11639D01*
X25267Y-11548D01*
X25074Y-11481D01*
X24870Y-11492D01*
X24733Y-11548D01*
X24710Y-11639D01*
X25000Y-11929D01*
X25290Y-11639D01*
X25290Y-11781D01*
X25071Y-12000D01*
X25361Y-12290D01*
X25452Y-12267D01*
X25519Y-12074D01*
X25519Y-14881D01*
X25445Y-14703D01*
X25298Y-14555D01*
X25290Y-14551D01*
X25290Y-12361D01*
X25000Y-12071D01*
X24929Y-12142D01*
X24929Y-12000D01*
X24639Y-11710D01*
X24548Y-11733D01*
X24503Y-11859D01*
X24452Y-11733D01*
X24361Y-11710D01*
X24290Y-11781D01*
X24290Y-11639D01*
X24267Y-11548D01*
X24074Y-11481D01*
X23870Y-11492D01*
X23733Y-11548D01*
X23710Y-11639D01*
X24000Y-11929D01*
X24290Y-11639D01*
X24290Y-11781D01*
X24071Y-12000D01*
X24361Y-12290D01*
X24452Y-12267D01*
X24496Y-12140D01*
X24548Y-12267D01*
X24639Y-12290D01*
X24929Y-12000D01*
X24929Y-12142D01*
X24710Y-12361D01*
X24733Y-12452D01*
X24926Y-12519D01*
X25130Y-12508D01*
X25267Y-12452D01*
X25290Y-12361D01*
X25290Y-14551D01*
X25105Y-14475D01*
X24896Y-14475D01*
X24703Y-14555D01*
X24555Y-14702D01*
X24499Y-14835D01*
X24445Y-14703D01*
X24298Y-14555D01*
X24290Y-14551D01*
X24290Y-12361D01*
X24000Y-12071D01*
X23929Y-12142D01*
X23929Y-12000D01*
X23639Y-11710D01*
X23548Y-11733D01*
X23524Y-11801D01*
X23524Y-11774D01*
X23524Y-11675D01*
X23486Y-11584D01*
X23416Y-11514D01*
X23324Y-11476D01*
X23112Y-11475D01*
X23050Y-11537D01*
X23050Y-11900D01*
X23050Y-11950D01*
X23050Y-12050D01*
X23050Y-12100D01*
X23050Y-12463D01*
X23112Y-12525D01*
X23324Y-12524D01*
X23416Y-12486D01*
X23486Y-12416D01*
X23524Y-12325D01*
X23524Y-12226D01*
X23524Y-12208D01*
X23548Y-12267D01*
X23639Y-12290D01*
X23929Y-12000D01*
X23929Y-12142D01*
X23710Y-12361D01*
X23733Y-12452D01*
X23926Y-12519D01*
X24130Y-12508D01*
X24267Y-12452D01*
X24290Y-12361D01*
X24290Y-14551D01*
X24105Y-14475D01*
X23896Y-14475D01*
X23703Y-14555D01*
X23555Y-14702D01*
X23524Y-14776D01*
X23524Y-14676D01*
X23486Y-14584D01*
X23416Y-14514D01*
X23325Y-14476D01*
X23226Y-14476D01*
X22950Y-14476D01*
X22950Y-12463D01*
X22950Y-12050D01*
X22950Y-11950D01*
X22950Y-11537D01*
X22888Y-11475D01*
X22676Y-11476D01*
X22584Y-11514D01*
X22514Y-11584D01*
X22476Y-11675D01*
X22476Y-11774D01*
X22475Y-11888D01*
X22537Y-11950D01*
X22950Y-11950D01*
X22950Y-12050D01*
X22537Y-12050D01*
X22475Y-12112D01*
X22476Y-12226D01*
X22476Y-12325D01*
X22514Y-12416D01*
X22584Y-12486D01*
X22676Y-12524D01*
X22888Y-12525D01*
X22950Y-12463D01*
X22950Y-14476D01*
X22676Y-14476D01*
X22584Y-14514D01*
X22514Y-14584D01*
X22476Y-14675D01*
X22476Y-14774D01*
X22476Y-15324D01*
X22514Y-15416D01*
X22584Y-15486D01*
X22675Y-15524D01*
X22774Y-15524D01*
X23324Y-15524D01*
X23416Y-15486D01*
X23486Y-15416D01*
X23524Y-15325D01*
X23524Y-15226D01*
X23524Y-15222D01*
X23555Y-15297D01*
X23702Y-15445D01*
X23895Y-15525D01*
X24104Y-15525D01*
X24297Y-15445D01*
X24445Y-15298D01*
X24500Y-15164D01*
X24555Y-15297D01*
X24702Y-15445D01*
X24895Y-15525D01*
X25104Y-15525D01*
X25297Y-15445D01*
X25445Y-15298D01*
X25525Y-15105D01*
X25525Y-15925D01*
X21025Y-15925D01*
X21025Y-14105D01*
X21025Y-13896D01*
X20945Y-13703D01*
X20798Y-13555D01*
X20664Y-13499D01*
X20797Y-13445D01*
X20945Y-13298D01*
X21025Y-13105D01*
X21025Y-12896D01*
X20945Y-12703D01*
X20798Y-12555D01*
X20664Y-12499D01*
X20797Y-12445D01*
X20945Y-12298D01*
X21025Y-12105D01*
X21025Y-11896D01*
X20945Y-11703D01*
X20798Y-11555D01*
X20605Y-11475D01*
X20396Y-11475D01*
X20203Y-11555D01*
X20055Y-11702D01*
X19975Y-11895D01*
X19975Y-12104D01*
X20055Y-12297D01*
X20202Y-12445D01*
X20335Y-12500D01*
X20203Y-12555D01*
X20057Y-12700D01*
X18985Y-12700D01*
X19025Y-12605D01*
X19025Y-12396D01*
X18945Y-12203D01*
X18798Y-12055D01*
X18605Y-11975D01*
X18396Y-11975D01*
X18203Y-12055D01*
X18055Y-12202D01*
X17975Y-12395D01*
X17975Y-12604D01*
X18014Y-12700D01*
X17024Y-12700D01*
X17024Y-12176D01*
X16986Y-12084D01*
X16916Y-12014D01*
X16825Y-11976D01*
X16726Y-11976D01*
X16176Y-11976D01*
X16084Y-12014D01*
X16014Y-12084D01*
X15976Y-12175D01*
X15976Y-12274D01*
X15976Y-12824D01*
X16014Y-12916D01*
X16049Y-12951D01*
X15692Y-13309D01*
X15607Y-13309D01*
X15451Y-13373D01*
X15331Y-13493D01*
X15266Y-13649D01*
X15266Y-13818D01*
X15330Y-13974D01*
X15450Y-14094D01*
X15606Y-14159D01*
X15775Y-14159D01*
X15931Y-14095D01*
X16051Y-13975D01*
X16116Y-13819D01*
X16116Y-13733D01*
X16549Y-13300D01*
X20057Y-13300D01*
X20202Y-13445D01*
X20335Y-13500D01*
X20203Y-13555D01*
X20055Y-13702D01*
X19975Y-13895D01*
X19975Y-14104D01*
X20055Y-14297D01*
X20202Y-14445D01*
X20276Y-14476D01*
X20176Y-14476D01*
X20084Y-14514D01*
X20014Y-14584D01*
X19976Y-14675D01*
X19976Y-14774D01*
X19976Y-15324D01*
X20014Y-15416D01*
X20084Y-15486D01*
X20175Y-15524D01*
X20274Y-15524D01*
X20824Y-15524D01*
X20916Y-15486D01*
X20986Y-15416D01*
X21024Y-15325D01*
X21024Y-15226D01*
X21024Y-14676D01*
X20986Y-14584D01*
X20916Y-14514D01*
X20825Y-14476D01*
X20726Y-14476D01*
X20722Y-14476D01*
X20797Y-14445D01*
X20945Y-14298D01*
X21025Y-14105D01*
X21025Y-15925D01*
X19019Y-15925D01*
X19019Y-14574D01*
X19008Y-14370D01*
X18952Y-14233D01*
X18861Y-14210D01*
X18790Y-14281D01*
X18790Y-14139D01*
X18767Y-14048D01*
X18574Y-13981D01*
X18370Y-13992D01*
X18233Y-14048D01*
X18210Y-14139D01*
X18500Y-14429D01*
X18790Y-14139D01*
X18790Y-14281D01*
X18571Y-14500D01*
X18861Y-14790D01*
X18952Y-14767D01*
X19019Y-14574D01*
X19019Y-15925D01*
X18790Y-15925D01*
X18790Y-14861D01*
X18500Y-14571D01*
X18429Y-14642D01*
X18429Y-14500D01*
X18139Y-14210D01*
X18048Y-14233D01*
X17981Y-14426D01*
X17992Y-14630D01*
X18048Y-14767D01*
X18139Y-14790D01*
X18429Y-14500D01*
X18429Y-14642D01*
X18210Y-14861D01*
X18233Y-14952D01*
X18426Y-15019D01*
X18630Y-15008D01*
X18767Y-14952D01*
X18790Y-14861D01*
X18790Y-15925D01*
X17025Y-15925D01*
X17025Y-14605D01*
X17025Y-14396D01*
X16945Y-14203D01*
X16798Y-14055D01*
X16605Y-13975D01*
X16396Y-13975D01*
X16203Y-14055D01*
X16055Y-14202D01*
X15975Y-14395D01*
X15975Y-14604D01*
X16055Y-14797D01*
X16202Y-14945D01*
X16395Y-15025D01*
X16604Y-15025D01*
X16797Y-14945D01*
X16945Y-14798D01*
X17025Y-14605D01*
X17025Y-15925D01*
X07075Y-15925D01*
X07075Y-14009D01*
X07110Y-14094D01*
X07405Y-14390D01*
X07790Y-14550D01*
X08208Y-14550D01*
X08594Y-14390D01*
X08890Y-14095D01*
X09050Y-13710D01*
X09050Y-13292D01*
X08890Y-12906D01*
X08595Y-12610D01*
X08210Y-12450D01*
X07792Y-12450D01*
X07406Y-12610D01*
X07110Y-12905D01*
X07075Y-12989D01*
X07075Y-11325D01*
X28175Y-11325D01*
X28175Y-12990D01*
X28140Y-12906D01*
X27845Y-12610D01*
X27460Y-12450D01*
X27042Y-12450D01*
X26656Y-12610D01*
X26360Y-12905D01*
X26200Y-13290D01*
X26200Y-13708D01*
X26360Y-14094D01*
X26655Y-14390D01*
X27040Y-14550D01*
X27458Y-14550D01*
X27844Y-14390D01*
X28140Y-14095D01*
X28175Y-14010D01*
X28175Y-15925D01*
M02*
