G04 (created by PCBNEW-RS274X (2011-05-25)-stable) date Sun 01 Apr 2012 11:55:30 AM PDT*
G01*
G70*
G90*
%MOIN*%
G04 Gerber Fmt 3.4, Leading zero omitted, Abs format*
%FSLAX34Y34*%
G04 APERTURE LIST*
%ADD10C,0.006000*%
%ADD11C,0.160000*%
%ADD12R,0.055000X0.055000*%
%ADD13C,0.055000*%
%ADD14R,0.039400X0.027600*%
%ADD15R,0.060000X0.080000*%
%ADD16C,0.035000*%
%ADD17C,0.010000*%
G04 APERTURE END LIST*
G54D10*
G54D11*
X08000Y-13500D03*
X27250Y-13500D03*
G54D12*
X16500Y-12500D03*
G54D13*
X18500Y-14500D03*
X18500Y-12500D03*
X16500Y-14500D03*
G54D14*
X14700Y-13025D03*
X14700Y-13400D03*
X14700Y-13775D03*
X13700Y-13775D03*
X13700Y-13400D03*
X13700Y-13025D03*
G54D15*
X10650Y-14900D03*
X11950Y-14900D03*
X11950Y-13600D03*
X10650Y-13600D03*
X11950Y-12200D03*
X10650Y-12200D03*
G54D12*
X20500Y-15000D03*
G54D13*
X20500Y-14000D03*
X20500Y-13000D03*
X20500Y-12000D03*
G54D12*
X23000Y-12000D03*
G54D13*
X24000Y-12000D03*
X25000Y-12000D03*
G54D12*
X23000Y-15000D03*
G54D13*
X24000Y-15000D03*
X25000Y-15000D03*
G54D16*
X15691Y-13734D03*
X14175Y-13449D03*
G54D17*
X18071Y-12071D02*
X18500Y-12500D01*
X12532Y-12071D02*
X18071Y-12071D01*
X12403Y-12200D02*
X12532Y-12071D01*
X11950Y-12200D02*
X12403Y-12200D01*
X13503Y-12500D02*
X16500Y-12500D01*
X12403Y-13600D02*
X13503Y-12500D01*
X11950Y-13600D02*
X12403Y-13600D01*
X13700Y-13025D02*
X13350Y-13025D01*
X20500Y-15000D02*
X20072Y-15000D01*
X11301Y-14249D02*
X13350Y-14249D01*
X11103Y-14447D02*
X11301Y-14249D01*
X11103Y-14900D02*
X11103Y-14447D01*
X13377Y-14276D02*
X13350Y-14249D01*
X16065Y-14276D02*
X13377Y-14276D01*
X16275Y-14066D02*
X16065Y-14276D01*
X19138Y-14066D02*
X16275Y-14066D01*
X20072Y-15000D02*
X19138Y-14066D01*
X13350Y-14249D02*
X13350Y-13025D01*
X10650Y-14900D02*
X11103Y-14900D01*
X13700Y-13775D02*
X13700Y-14066D01*
X10650Y-13600D02*
X10197Y-13600D01*
X10197Y-15437D02*
X10197Y-13600D01*
X10225Y-15465D02*
X10197Y-15437D01*
X20865Y-15465D02*
X10225Y-15465D01*
X20929Y-15401D02*
X20865Y-15465D01*
X20929Y-14561D02*
X20929Y-15401D01*
X20434Y-14066D02*
X20929Y-14561D01*
X20500Y-14000D02*
X20434Y-14066D01*
X15884Y-14066D02*
X13700Y-14066D01*
X16087Y-13863D02*
X15884Y-14066D01*
X20231Y-13863D02*
X16087Y-13863D01*
X20434Y-14066D02*
X20231Y-13863D01*
X11103Y-11747D02*
X11103Y-12200D01*
X11511Y-11339D02*
X11103Y-11747D01*
X20555Y-11339D02*
X11511Y-11339D01*
X20934Y-11718D02*
X20555Y-11339D01*
X20934Y-12566D02*
X20934Y-11718D01*
X20500Y-13000D02*
X20934Y-12566D01*
X10650Y-12200D02*
X11103Y-12200D01*
X15091Y-13734D02*
X15050Y-13775D01*
X15691Y-13734D02*
X15091Y-13734D01*
X14700Y-13775D02*
X15050Y-13775D01*
X19475Y-13025D02*
X14700Y-13025D01*
X20500Y-12000D02*
X19475Y-13025D01*
X16100Y-14900D02*
X16500Y-14500D01*
X11950Y-14900D02*
X16100Y-14900D01*
X25000Y-15000D02*
X24000Y-15000D01*
X24000Y-15000D02*
X23000Y-15000D01*
X18472Y-13400D02*
X15050Y-13400D01*
X18524Y-13452D02*
X18472Y-13400D01*
X21024Y-13452D02*
X18524Y-13452D01*
X22572Y-15000D02*
X21024Y-13452D01*
X23000Y-15000D02*
X22572Y-15000D01*
X14700Y-13400D02*
X15050Y-13400D01*
X13700Y-13400D02*
X14050Y-13400D01*
X14099Y-13449D02*
X14050Y-13400D01*
X14175Y-13449D02*
X14099Y-13449D01*
M02*
