G04 (created by PCBNEW-RS274X (2011-05-25)-stable) date Sun 01 Apr 2012 11:55:30 AM PDT*
G01*
G70*
G90*
%MOIN*%
G04 Gerber Fmt 3.4, Leading zero omitted, Abs format*
%FSLAX34Y34*%
G04 APERTURE LIST*
%ADD10C,0.006000*%
%ADD11C,0.015000*%
%ADD12C,0.005000*%
%ADD13C,0.012000*%
%ADD14C,0.010000*%
%ADD15C,0.003000*%
%ADD16C,0.010700*%
%ADD17C,0.010600*%
G04 APERTURE END LIST*
G54D10*
G54D11*
X08900Y-13500D02*
X08882Y-13674D01*
X08832Y-13842D01*
X08749Y-13998D01*
X08638Y-14134D01*
X08503Y-14246D01*
X08348Y-14329D01*
X08180Y-14381D01*
X08006Y-14399D01*
X07832Y-14384D01*
X07663Y-14334D01*
X07508Y-14253D01*
X07371Y-14143D01*
X07258Y-14008D01*
X07173Y-13854D01*
X07120Y-13687D01*
X07101Y-13512D01*
X07115Y-13338D01*
X07164Y-13169D01*
X07244Y-13013D01*
X07353Y-12875D01*
X07487Y-12761D01*
X07640Y-12676D01*
X07807Y-12621D01*
X07982Y-12601D01*
X08156Y-12614D01*
X08325Y-12661D01*
X08482Y-12741D01*
X08620Y-12849D01*
X08735Y-12982D01*
X08822Y-13134D01*
X08877Y-13301D01*
X08899Y-13475D01*
X08900Y-13500D01*
X28150Y-13500D02*
X28132Y-13674D01*
X28082Y-13842D01*
X27999Y-13998D01*
X27888Y-14134D01*
X27753Y-14246D01*
X27598Y-14329D01*
X27430Y-14381D01*
X27256Y-14399D01*
X27082Y-14384D01*
X26913Y-14334D01*
X26758Y-14253D01*
X26621Y-14143D01*
X26508Y-14008D01*
X26423Y-13854D01*
X26370Y-13687D01*
X26351Y-13512D01*
X26365Y-13338D01*
X26414Y-13169D01*
X26494Y-13013D01*
X26603Y-12875D01*
X26737Y-12761D01*
X26890Y-12676D01*
X27057Y-12621D01*
X27232Y-12601D01*
X27406Y-12614D01*
X27575Y-12661D01*
X27732Y-12741D01*
X27870Y-12849D01*
X27985Y-12982D01*
X28072Y-13134D01*
X28127Y-13301D01*
X28149Y-13475D01*
X28150Y-13500D01*
G54D12*
X13900Y-13200D02*
X14100Y-12900D01*
X13900Y-13900D02*
X13900Y-12875D01*
X13900Y-12875D02*
X14500Y-12875D01*
X14500Y-12875D02*
X14500Y-13900D01*
X14500Y-13900D02*
X13900Y-13900D01*
X10300Y-14450D02*
X10300Y-15350D01*
X10300Y-15350D02*
X10950Y-15350D01*
X11650Y-14450D02*
X12300Y-14450D01*
X12300Y-14450D02*
X12300Y-15350D01*
X12300Y-15350D02*
X11650Y-15350D01*
X10950Y-14450D02*
X10300Y-14450D01*
X12300Y-14050D02*
X12300Y-13150D01*
X12300Y-13150D02*
X11650Y-13150D01*
X10950Y-14050D02*
X10300Y-14050D01*
X10300Y-14050D02*
X10300Y-13150D01*
X10300Y-13150D02*
X10950Y-13150D01*
X11650Y-14050D02*
X12300Y-14050D01*
X12300Y-12650D02*
X12300Y-11750D01*
X12300Y-11750D02*
X11650Y-11750D01*
X10950Y-12650D02*
X10300Y-12650D01*
X10300Y-12650D02*
X10300Y-11750D01*
X10300Y-11750D02*
X10950Y-11750D01*
X11650Y-12650D02*
X12300Y-12650D01*
G54D13*
X20000Y-15500D02*
X20000Y-15500D01*
X21000Y-15500D02*
X20000Y-15500D01*
X20000Y-15500D02*
X20000Y-15500D01*
X20000Y-15500D02*
X20000Y-11500D01*
X20000Y-11500D02*
X21000Y-11500D01*
X21000Y-11500D02*
X21000Y-15500D01*
X21000Y-14500D02*
X20000Y-14500D01*
X22500Y-12500D02*
X22500Y-11500D01*
X22500Y-11500D02*
X25500Y-11500D01*
X25500Y-11500D02*
X25500Y-12500D01*
X25500Y-12500D02*
X22500Y-12500D01*
X23500Y-11500D02*
X23500Y-12500D01*
X22500Y-15500D02*
X22500Y-14500D01*
X22500Y-14500D02*
X25500Y-14500D01*
X25500Y-14500D02*
X25500Y-15500D01*
X25500Y-15500D02*
X22500Y-15500D01*
X23500Y-14500D02*
X23500Y-15500D01*
G54D14*
X07695Y-12462D02*
X07695Y-12062D01*
X07695Y-12252D02*
X07924Y-12252D01*
X07924Y-12462D02*
X07924Y-12062D01*
X08095Y-12100D02*
X08114Y-12081D01*
X08152Y-12062D01*
X08248Y-12062D01*
X08286Y-12081D01*
X08305Y-12100D01*
X08324Y-12138D01*
X08324Y-12176D01*
X08305Y-12233D01*
X08076Y-12462D01*
X08324Y-12462D01*
X26945Y-12462D02*
X26945Y-12062D01*
X26945Y-12252D02*
X27174Y-12252D01*
X27174Y-12462D02*
X27174Y-12062D01*
X27574Y-12462D02*
X27345Y-12462D01*
X27459Y-12462D02*
X27459Y-12062D01*
X27421Y-12119D01*
X27383Y-12157D01*
X27345Y-12176D01*
G54D15*
X13971Y-12221D02*
X13971Y-12464D01*
X13986Y-12493D01*
X14000Y-12507D01*
X14029Y-12521D01*
X14086Y-12521D01*
X14114Y-12507D01*
X14129Y-12493D01*
X14143Y-12464D01*
X14143Y-12221D01*
X14443Y-12521D02*
X14271Y-12521D01*
X14357Y-12521D02*
X14357Y-12221D01*
X14328Y-12264D01*
X14300Y-12293D01*
X14271Y-12307D01*
G54D10*
X13793Y-14521D02*
X13793Y-14221D01*
X13893Y-14436D01*
X13993Y-14221D01*
X13993Y-14521D01*
X14308Y-14493D02*
X14294Y-14507D01*
X14251Y-14521D01*
X14222Y-14521D01*
X14179Y-14507D01*
X14151Y-14479D01*
X14136Y-14450D01*
X14122Y-14393D01*
X14122Y-14350D01*
X14136Y-14293D01*
X14151Y-14264D01*
X14179Y-14236D01*
X14222Y-14221D01*
X14251Y-14221D01*
X14294Y-14236D01*
X14308Y-14250D01*
X14436Y-14221D02*
X14436Y-14464D01*
X14451Y-14493D01*
X14465Y-14507D01*
X14494Y-14521D01*
X14551Y-14521D01*
X14579Y-14507D01*
X14594Y-14493D01*
X14608Y-14464D01*
X14608Y-14221D01*
G54D12*
X09750Y-15021D02*
X09650Y-14879D01*
X09578Y-15021D02*
X09578Y-14721D01*
X09693Y-14721D01*
X09721Y-14736D01*
X09736Y-14750D01*
X09750Y-14779D01*
X09750Y-14821D01*
X09736Y-14850D01*
X09721Y-14864D01*
X09693Y-14879D01*
X09578Y-14879D01*
X10036Y-15021D02*
X09864Y-15021D01*
X09950Y-15021D02*
X09950Y-14721D01*
X09921Y-14764D01*
X09893Y-14793D01*
X09864Y-14807D01*
X09750Y-13721D02*
X09650Y-13579D01*
X09578Y-13721D02*
X09578Y-13421D01*
X09693Y-13421D01*
X09721Y-13436D01*
X09736Y-13450D01*
X09750Y-13479D01*
X09750Y-13521D01*
X09736Y-13550D01*
X09721Y-13564D01*
X09693Y-13579D01*
X09578Y-13579D01*
X09864Y-13450D02*
X09878Y-13436D01*
X09907Y-13421D01*
X09978Y-13421D01*
X10007Y-13436D01*
X10021Y-13450D01*
X10036Y-13479D01*
X10036Y-13507D01*
X10021Y-13550D01*
X09850Y-13721D01*
X10036Y-13721D01*
X09750Y-12321D02*
X09650Y-12179D01*
X09578Y-12321D02*
X09578Y-12021D01*
X09693Y-12021D01*
X09721Y-12036D01*
X09736Y-12050D01*
X09750Y-12079D01*
X09750Y-12121D01*
X09736Y-12150D01*
X09721Y-12164D01*
X09693Y-12179D01*
X09578Y-12179D01*
X09850Y-12021D02*
X10036Y-12021D01*
X09936Y-12136D01*
X09978Y-12136D01*
X10007Y-12150D01*
X10021Y-12164D01*
X10036Y-12193D01*
X10036Y-12264D01*
X10021Y-12293D01*
X10007Y-12307D01*
X09978Y-12321D01*
X09893Y-12321D01*
X09864Y-12307D01*
X09850Y-12293D01*
G54D16*
X21776Y-13816D02*
X21093Y-13816D01*
X21093Y-13653D01*
X21125Y-13612D01*
X21158Y-13592D01*
X21223Y-13572D01*
X21321Y-13572D01*
X21386Y-13592D01*
X21418Y-13612D01*
X21451Y-13653D01*
X21451Y-13816D01*
X21158Y-13408D02*
X21125Y-13388D01*
X21093Y-13347D01*
X21093Y-13245D01*
X21125Y-13205D01*
X21158Y-13184D01*
X21223Y-13164D01*
X21288Y-13164D01*
X21386Y-13184D01*
X21776Y-13429D01*
X21776Y-13164D01*
G54D17*
X25687Y-12285D02*
X25687Y-11580D01*
X25929Y-12285D02*
X25748Y-11882D01*
X25929Y-11580D02*
X25687Y-11983D01*
X26333Y-12285D02*
X26091Y-12285D01*
X26212Y-12285D02*
X26212Y-11580D01*
X26172Y-11681D01*
X26131Y-11748D01*
X26091Y-11781D01*
X25687Y-15285D02*
X25687Y-14580D01*
X25929Y-15285D02*
X25748Y-14882D01*
X25929Y-14580D02*
X25687Y-14983D01*
X26091Y-14647D02*
X26111Y-14613D01*
X26151Y-14580D01*
X26252Y-14580D01*
X26293Y-14613D01*
X26313Y-14647D01*
X26333Y-14714D01*
X26333Y-14781D01*
X26313Y-14882D01*
X26071Y-15285D01*
X26333Y-15285D01*
M02*
