G04 (created by PCBNEW-RS274X (2011-05-25)-stable) date Tue 28 Feb 2012 11:44:01 PM PST*
G01*
G70*
G90*
%MOIN*%
G04 Gerber Fmt 3.4, Leading zero omitted, Abs format*
%FSLAX34Y34*%
G04 APERTURE LIST*
%ADD10C,0.006000*%
%ADD11C,0.160000*%
%ADD12R,0.055000X0.055000*%
%ADD13C,0.055000*%
%ADD14C,0.035000*%
%ADD15C,0.010000*%
G04 APERTURE END LIST*
G54D10*
G54D11*
X06500Y-13500D03*
X28500Y-13500D03*
G54D12*
X18500Y-12500D03*
G54D13*
X16500Y-14500D03*
X16500Y-12500D03*
X18500Y-14500D03*
G54D12*
X22000Y-15000D03*
G54D13*
X22000Y-14000D03*
X22000Y-13000D03*
X22000Y-12000D03*
G54D12*
X25500Y-14000D03*
G54D13*
X25500Y-13000D03*
G54D12*
X24000Y-14000D03*
G54D13*
X24000Y-13000D03*
G54D14*
X12024Y-13500D03*
G54D15*
X18500Y-12500D02*
X18072Y-12500D01*
X17072Y-13500D02*
X12024Y-13500D01*
X18072Y-12500D02*
X17072Y-13500D01*
X24000Y-13000D02*
X24000Y-14000D01*
G54D10*
G36*
X29450Y-15950D02*
X26025Y-15950D01*
X26025Y-13105D01*
X26025Y-12896D01*
X25945Y-12703D01*
X25798Y-12555D01*
X25605Y-12475D01*
X25396Y-12475D01*
X25203Y-12555D01*
X25055Y-12702D01*
X24975Y-12895D01*
X24975Y-13104D01*
X25055Y-13297D01*
X25202Y-13445D01*
X25276Y-13476D01*
X25176Y-13476D01*
X25084Y-13514D01*
X25014Y-13584D01*
X24976Y-13675D01*
X24976Y-13774D01*
X24976Y-14324D01*
X25014Y-14416D01*
X25084Y-14486D01*
X25175Y-14524D01*
X25274Y-14524D01*
X25824Y-14524D01*
X25916Y-14486D01*
X25986Y-14416D01*
X26024Y-14325D01*
X26024Y-14226D01*
X26024Y-13676D01*
X25986Y-13584D01*
X25916Y-13514D01*
X25825Y-13476D01*
X25726Y-13476D01*
X25722Y-13476D01*
X25797Y-13445D01*
X25945Y-13298D01*
X26025Y-13105D01*
X26025Y-15950D01*
X24525Y-15950D01*
X24525Y-13105D01*
X24525Y-12896D01*
X24445Y-12703D01*
X24298Y-12555D01*
X24105Y-12475D01*
X23896Y-12475D01*
X23703Y-12555D01*
X23555Y-12702D01*
X23475Y-12895D01*
X23475Y-13104D01*
X23555Y-13297D01*
X23700Y-13442D01*
X23700Y-13476D01*
X23676Y-13476D01*
X23584Y-13514D01*
X23514Y-13584D01*
X23476Y-13675D01*
X23476Y-13774D01*
X23476Y-14324D01*
X23514Y-14416D01*
X23584Y-14486D01*
X23675Y-14524D01*
X23774Y-14524D01*
X24324Y-14524D01*
X24416Y-14486D01*
X24486Y-14416D01*
X24524Y-14325D01*
X24524Y-14226D01*
X24524Y-13676D01*
X24486Y-13584D01*
X24416Y-13514D01*
X24325Y-13476D01*
X24300Y-13476D01*
X24300Y-13442D01*
X24445Y-13298D01*
X24525Y-13105D01*
X24525Y-15950D01*
X22525Y-15950D01*
X22525Y-14105D01*
X22525Y-13896D01*
X22445Y-13703D01*
X22298Y-13555D01*
X22164Y-13499D01*
X22297Y-13445D01*
X22445Y-13298D01*
X22525Y-13105D01*
X22525Y-12896D01*
X22445Y-12703D01*
X22298Y-12555D01*
X22164Y-12499D01*
X22297Y-12445D01*
X22445Y-12298D01*
X22525Y-12105D01*
X22525Y-11896D01*
X22445Y-11703D01*
X22298Y-11555D01*
X22105Y-11475D01*
X21896Y-11475D01*
X21703Y-11555D01*
X21555Y-11702D01*
X21475Y-11895D01*
X21475Y-12104D01*
X21555Y-12297D01*
X21702Y-12445D01*
X21835Y-12500D01*
X21703Y-12555D01*
X21555Y-12702D01*
X21475Y-12895D01*
X21475Y-13104D01*
X21555Y-13297D01*
X21702Y-13445D01*
X21835Y-13500D01*
X21703Y-13555D01*
X21555Y-13702D01*
X21475Y-13895D01*
X21475Y-14104D01*
X21555Y-14297D01*
X21702Y-14445D01*
X21776Y-14476D01*
X21676Y-14476D01*
X21584Y-14514D01*
X21514Y-14584D01*
X21476Y-14675D01*
X21476Y-14774D01*
X21476Y-15324D01*
X21514Y-15416D01*
X21584Y-15486D01*
X21675Y-15524D01*
X21774Y-15524D01*
X22324Y-15524D01*
X22416Y-15486D01*
X22486Y-15416D01*
X22524Y-15325D01*
X22524Y-15226D01*
X22524Y-14676D01*
X22486Y-14584D01*
X22416Y-14514D01*
X22325Y-14476D01*
X22226Y-14476D01*
X22222Y-14476D01*
X22297Y-14445D01*
X22445Y-14298D01*
X22525Y-14105D01*
X22525Y-15950D01*
X19025Y-15950D01*
X19025Y-14605D01*
X19025Y-14396D01*
X19024Y-14393D01*
X19024Y-12825D01*
X19024Y-12726D01*
X19024Y-12176D01*
X18986Y-12084D01*
X18916Y-12014D01*
X18825Y-11976D01*
X18726Y-11976D01*
X18176Y-11976D01*
X18084Y-12014D01*
X18014Y-12084D01*
X17976Y-12175D01*
X17976Y-12219D01*
X17957Y-12223D01*
X17860Y-12288D01*
X17025Y-13123D01*
X17025Y-12605D01*
X17025Y-12396D01*
X16945Y-12203D01*
X16798Y-12055D01*
X16605Y-11975D01*
X16396Y-11975D01*
X16203Y-12055D01*
X16055Y-12202D01*
X15975Y-12395D01*
X15975Y-12604D01*
X16055Y-12797D01*
X16202Y-12945D01*
X16395Y-13025D01*
X16604Y-13025D01*
X16797Y-12945D01*
X16945Y-12798D01*
X17025Y-12605D01*
X17025Y-13123D01*
X16948Y-13200D01*
X12325Y-13200D01*
X12265Y-13140D01*
X12109Y-13075D01*
X11940Y-13075D01*
X11784Y-13139D01*
X11664Y-13259D01*
X11599Y-13415D01*
X11599Y-13584D01*
X11663Y-13740D01*
X11783Y-13860D01*
X11939Y-13925D01*
X12108Y-13925D01*
X12264Y-13861D01*
X12325Y-13800D01*
X17072Y-13800D01*
X17187Y-13777D01*
X17284Y-13712D01*
X18047Y-12949D01*
X18084Y-12986D01*
X18175Y-13024D01*
X18274Y-13024D01*
X18824Y-13024D01*
X18916Y-12986D01*
X18986Y-12916D01*
X19024Y-12825D01*
X19024Y-14393D01*
X18945Y-14203D01*
X18798Y-14055D01*
X18605Y-13975D01*
X18396Y-13975D01*
X18203Y-14055D01*
X18055Y-14202D01*
X17975Y-14395D01*
X17975Y-14604D01*
X18055Y-14797D01*
X18202Y-14945D01*
X18395Y-15025D01*
X18604Y-15025D01*
X18797Y-14945D01*
X18945Y-14798D01*
X19025Y-14605D01*
X19025Y-15950D01*
X17019Y-15950D01*
X17019Y-14574D01*
X17008Y-14370D01*
X16952Y-14233D01*
X16861Y-14210D01*
X16790Y-14281D01*
X16790Y-14139D01*
X16767Y-14048D01*
X16574Y-13981D01*
X16370Y-13992D01*
X16233Y-14048D01*
X16210Y-14139D01*
X16500Y-14429D01*
X16790Y-14139D01*
X16790Y-14281D01*
X16571Y-14500D01*
X16861Y-14790D01*
X16952Y-14767D01*
X17019Y-14574D01*
X17019Y-15950D01*
X16790Y-15950D01*
X16790Y-14861D01*
X16500Y-14571D01*
X16429Y-14642D01*
X16429Y-14500D01*
X16139Y-14210D01*
X16048Y-14233D01*
X15981Y-14426D01*
X15992Y-14630D01*
X16048Y-14767D01*
X16139Y-14790D01*
X16429Y-14500D01*
X16429Y-14642D01*
X16210Y-14861D01*
X16233Y-14952D01*
X16426Y-15019D01*
X16630Y-15008D01*
X16767Y-14952D01*
X16790Y-14861D01*
X16790Y-15950D01*
X05550Y-15950D01*
X05550Y-13949D01*
X05610Y-14094D01*
X05905Y-14390D01*
X06290Y-14550D01*
X06708Y-14550D01*
X07094Y-14390D01*
X07390Y-14095D01*
X07550Y-13710D01*
X07550Y-13292D01*
X07390Y-12906D01*
X07095Y-12610D01*
X06710Y-12450D01*
X06292Y-12450D01*
X05906Y-12610D01*
X05610Y-12905D01*
X05550Y-13049D01*
X05550Y-11050D01*
X29450Y-11050D01*
X29450Y-13050D01*
X29390Y-12906D01*
X29095Y-12610D01*
X28710Y-12450D01*
X28292Y-12450D01*
X27906Y-12610D01*
X27610Y-12905D01*
X27450Y-13290D01*
X27450Y-13708D01*
X27610Y-14094D01*
X27905Y-14390D01*
X28290Y-14550D01*
X28708Y-14550D01*
X29094Y-14390D01*
X29390Y-14095D01*
X29450Y-13950D01*
X29450Y-15950D01*
X29450Y-15950D01*
G37*
G54D15*
X29450Y-15950D02*
X26025Y-15950D01*
X26025Y-13105D01*
X26025Y-12896D01*
X25945Y-12703D01*
X25798Y-12555D01*
X25605Y-12475D01*
X25396Y-12475D01*
X25203Y-12555D01*
X25055Y-12702D01*
X24975Y-12895D01*
X24975Y-13104D01*
X25055Y-13297D01*
X25202Y-13445D01*
X25276Y-13476D01*
X25176Y-13476D01*
X25084Y-13514D01*
X25014Y-13584D01*
X24976Y-13675D01*
X24976Y-13774D01*
X24976Y-14324D01*
X25014Y-14416D01*
X25084Y-14486D01*
X25175Y-14524D01*
X25274Y-14524D01*
X25824Y-14524D01*
X25916Y-14486D01*
X25986Y-14416D01*
X26024Y-14325D01*
X26024Y-14226D01*
X26024Y-13676D01*
X25986Y-13584D01*
X25916Y-13514D01*
X25825Y-13476D01*
X25726Y-13476D01*
X25722Y-13476D01*
X25797Y-13445D01*
X25945Y-13298D01*
X26025Y-13105D01*
X26025Y-15950D01*
X24525Y-15950D01*
X24525Y-13105D01*
X24525Y-12896D01*
X24445Y-12703D01*
X24298Y-12555D01*
X24105Y-12475D01*
X23896Y-12475D01*
X23703Y-12555D01*
X23555Y-12702D01*
X23475Y-12895D01*
X23475Y-13104D01*
X23555Y-13297D01*
X23700Y-13442D01*
X23700Y-13476D01*
X23676Y-13476D01*
X23584Y-13514D01*
X23514Y-13584D01*
X23476Y-13675D01*
X23476Y-13774D01*
X23476Y-14324D01*
X23514Y-14416D01*
X23584Y-14486D01*
X23675Y-14524D01*
X23774Y-14524D01*
X24324Y-14524D01*
X24416Y-14486D01*
X24486Y-14416D01*
X24524Y-14325D01*
X24524Y-14226D01*
X24524Y-13676D01*
X24486Y-13584D01*
X24416Y-13514D01*
X24325Y-13476D01*
X24300Y-13476D01*
X24300Y-13442D01*
X24445Y-13298D01*
X24525Y-13105D01*
X24525Y-15950D01*
X22525Y-15950D01*
X22525Y-14105D01*
X22525Y-13896D01*
X22445Y-13703D01*
X22298Y-13555D01*
X22164Y-13499D01*
X22297Y-13445D01*
X22445Y-13298D01*
X22525Y-13105D01*
X22525Y-12896D01*
X22445Y-12703D01*
X22298Y-12555D01*
X22164Y-12499D01*
X22297Y-12445D01*
X22445Y-12298D01*
X22525Y-12105D01*
X22525Y-11896D01*
X22445Y-11703D01*
X22298Y-11555D01*
X22105Y-11475D01*
X21896Y-11475D01*
X21703Y-11555D01*
X21555Y-11702D01*
X21475Y-11895D01*
X21475Y-12104D01*
X21555Y-12297D01*
X21702Y-12445D01*
X21835Y-12500D01*
X21703Y-12555D01*
X21555Y-12702D01*
X21475Y-12895D01*
X21475Y-13104D01*
X21555Y-13297D01*
X21702Y-13445D01*
X21835Y-13500D01*
X21703Y-13555D01*
X21555Y-13702D01*
X21475Y-13895D01*
X21475Y-14104D01*
X21555Y-14297D01*
X21702Y-14445D01*
X21776Y-14476D01*
X21676Y-14476D01*
X21584Y-14514D01*
X21514Y-14584D01*
X21476Y-14675D01*
X21476Y-14774D01*
X21476Y-15324D01*
X21514Y-15416D01*
X21584Y-15486D01*
X21675Y-15524D01*
X21774Y-15524D01*
X22324Y-15524D01*
X22416Y-15486D01*
X22486Y-15416D01*
X22524Y-15325D01*
X22524Y-15226D01*
X22524Y-14676D01*
X22486Y-14584D01*
X22416Y-14514D01*
X22325Y-14476D01*
X22226Y-14476D01*
X22222Y-14476D01*
X22297Y-14445D01*
X22445Y-14298D01*
X22525Y-14105D01*
X22525Y-15950D01*
X19025Y-15950D01*
X19025Y-14605D01*
X19025Y-14396D01*
X19024Y-14393D01*
X19024Y-12825D01*
X19024Y-12726D01*
X19024Y-12176D01*
X18986Y-12084D01*
X18916Y-12014D01*
X18825Y-11976D01*
X18726Y-11976D01*
X18176Y-11976D01*
X18084Y-12014D01*
X18014Y-12084D01*
X17976Y-12175D01*
X17976Y-12219D01*
X17957Y-12223D01*
X17860Y-12288D01*
X17025Y-13123D01*
X17025Y-12605D01*
X17025Y-12396D01*
X16945Y-12203D01*
X16798Y-12055D01*
X16605Y-11975D01*
X16396Y-11975D01*
X16203Y-12055D01*
X16055Y-12202D01*
X15975Y-12395D01*
X15975Y-12604D01*
X16055Y-12797D01*
X16202Y-12945D01*
X16395Y-13025D01*
X16604Y-13025D01*
X16797Y-12945D01*
X16945Y-12798D01*
X17025Y-12605D01*
X17025Y-13123D01*
X16948Y-13200D01*
X12325Y-13200D01*
X12265Y-13140D01*
X12109Y-13075D01*
X11940Y-13075D01*
X11784Y-13139D01*
X11664Y-13259D01*
X11599Y-13415D01*
X11599Y-13584D01*
X11663Y-13740D01*
X11783Y-13860D01*
X11939Y-13925D01*
X12108Y-13925D01*
X12264Y-13861D01*
X12325Y-13800D01*
X17072Y-13800D01*
X17187Y-13777D01*
X17284Y-13712D01*
X18047Y-12949D01*
X18084Y-12986D01*
X18175Y-13024D01*
X18274Y-13024D01*
X18824Y-13024D01*
X18916Y-12986D01*
X18986Y-12916D01*
X19024Y-12825D01*
X19024Y-14393D01*
X18945Y-14203D01*
X18798Y-14055D01*
X18605Y-13975D01*
X18396Y-13975D01*
X18203Y-14055D01*
X18055Y-14202D01*
X17975Y-14395D01*
X17975Y-14604D01*
X18055Y-14797D01*
X18202Y-14945D01*
X18395Y-15025D01*
X18604Y-15025D01*
X18797Y-14945D01*
X18945Y-14798D01*
X19025Y-14605D01*
X19025Y-15950D01*
X17019Y-15950D01*
X17019Y-14574D01*
X17008Y-14370D01*
X16952Y-14233D01*
X16861Y-14210D01*
X16790Y-14281D01*
X16790Y-14139D01*
X16767Y-14048D01*
X16574Y-13981D01*
X16370Y-13992D01*
X16233Y-14048D01*
X16210Y-14139D01*
X16500Y-14429D01*
X16790Y-14139D01*
X16790Y-14281D01*
X16571Y-14500D01*
X16861Y-14790D01*
X16952Y-14767D01*
X17019Y-14574D01*
X17019Y-15950D01*
X16790Y-15950D01*
X16790Y-14861D01*
X16500Y-14571D01*
X16429Y-14642D01*
X16429Y-14500D01*
X16139Y-14210D01*
X16048Y-14233D01*
X15981Y-14426D01*
X15992Y-14630D01*
X16048Y-14767D01*
X16139Y-14790D01*
X16429Y-14500D01*
X16429Y-14642D01*
X16210Y-14861D01*
X16233Y-14952D01*
X16426Y-15019D01*
X16630Y-15008D01*
X16767Y-14952D01*
X16790Y-14861D01*
X16790Y-15950D01*
X05550Y-15950D01*
X05550Y-13949D01*
X05610Y-14094D01*
X05905Y-14390D01*
X06290Y-14550D01*
X06708Y-14550D01*
X07094Y-14390D01*
X07390Y-14095D01*
X07550Y-13710D01*
X07550Y-13292D01*
X07390Y-12906D01*
X07095Y-12610D01*
X06710Y-12450D01*
X06292Y-12450D01*
X05906Y-12610D01*
X05610Y-12905D01*
X05550Y-13049D01*
X05550Y-11050D01*
X29450Y-11050D01*
X29450Y-13050D01*
X29390Y-12906D01*
X29095Y-12610D01*
X28710Y-12450D01*
X28292Y-12450D01*
X27906Y-12610D01*
X27610Y-12905D01*
X27450Y-13290D01*
X27450Y-13708D01*
X27610Y-14094D01*
X27905Y-14390D01*
X28290Y-14550D01*
X28708Y-14550D01*
X29094Y-14390D01*
X29390Y-14095D01*
X29450Y-13950D01*
X29450Y-15950D01*
M02*
